<svg width="116" height="36" viewBox="0 0 116 36" fill="none" xmlns="http://www.w3.org/2000/svg">
<path d="M26.3008 24.2891C26.3008 22.1016 26.8659 20.3151 27.9961 18.9297C29.1445 17.526 30.8034 16.8242 32.9727 16.8242C35.1602 16.8242 36.8281 17.526 37.9766 18.9297C39.125 20.3151 39.6992 22.1016 39.6992 24.2891C39.6992 26.4583 39.125 28.2357 37.9766 29.6211C36.8281 31.0065 35.1602 31.6992 32.9727 31.6992C30.8034 31.6992 29.1445 31.0065 27.9961 29.6211C26.8659 28.2357 26.3008 26.4583 26.3008 24.2891ZM29.8828 24.2891C29.8828 26.0755 30.2018 27.388 30.8398 28.2266C31.4779 29.0469 32.1888 29.457 32.9727 29.457C33.7747 29.457 34.4948 29.0469 35.1328 28.2266C35.7891 27.388 36.1172 26.0755 36.1172 24.2891C36.1172 22.4844 35.7891 21.1628 35.1328 20.3242C34.4948 19.4857 33.7747 19.0664 32.9727 19.0664C32.1888 19.0664 31.4779 19.4857 30.8398 20.3242C30.2018 21.1628 29.8828 22.4844 29.8828 24.2891ZM41.668 20.543C41.668 19.9596 41.6224 19.5768 41.5312 19.3945C41.4583 19.194 41.3581 19.0664 41.2305 19.0117C40.9388 18.9388 40.6927 18.8385 40.4922 18.7109C40.3099 18.5651 40.2188 18.3464 40.2188 18.0547C40.2188 17.4714 40.6107 17.1797 41.3945 17.1797H43.8008C44.6029 17.1797 45.0039 17.5078 45.0039 18.1641V18.3828C45.1315 18.2552 45.2682 18.1367 45.4141 18.0273C46.2344 17.3164 47.3099 16.9609 48.6406 16.9609H50.0352V20.0234C48.2852 19.6406 46.8815 19.8503 45.8242 20.6523C45.5143 20.8711 45.2409 21.181 45.0039 21.582V31.5078H41.668V20.543ZM55.0391 11.6289V17.1797H58.7305V19.3945H55.0664V27.8711C55.0664 28.5273 55.1758 28.9557 55.3945 29.1562C55.6315 29.3568 55.987 29.457 56.4609 29.457C56.7161 29.457 56.9622 29.457 57.1992 29.457C57.4544 29.4388 58.0469 29.3112 58.9766 29.0742V31.3711C58.3568 31.5716 57.7552 31.6901 57.1719 31.7266C56.6068 31.763 56.1693 31.7812 55.8594 31.7812C54.9297 31.7812 54.1641 31.681 53.5625 31.4805C52.9609 31.2617 52.5326 30.9518 52.2773 30.5508C51.9857 30.1862 51.8125 29.7305 51.7578 29.1836C51.7214 28.6185 51.7031 28.0352 51.7031 27.4336V19.3945H49.7344V17.1797H51.7031V15.0742L55.0391 11.6289ZM60.8633 19.3945H58.5664V17.1797H60.8633V14.3633C60.8633 13.2148 61.2188 12.2943 61.9297 11.6016C62.6589 10.8906 63.707 10.5352 65.0742 10.5352C66.5326 10.5352 67.6172 10.8906 68.3281 11.6016C69.0391 12.3125 69.3945 13.2786 69.3945 14.5H66.0312C66.013 13.8255 65.9219 13.3516 65.7578 13.0781C65.612 12.7865 65.3841 12.6406 65.0742 12.6406C64.819 12.6589 64.6185 12.8138 64.4727 13.1055C64.3268 13.3789 64.2539 13.8893 64.2539 14.6367V17.1797H67.9453V19.3945H64.2539V31.5078H60.8633V19.3945ZM68.4922 24.2891C68.4922 22.1016 69.0573 20.3151 70.1875 18.9297C71.3359 17.526 72.9948 16.8242 75.1641 16.8242C77.3516 16.8242 79.0195 17.526 80.168 18.9297C81.3164 20.3151 81.8906 22.1016 81.8906 24.2891C81.8906 26.4583 81.3164 28.2357 80.168 29.6211C79.0195 31.0065 77.3516 31.6992 75.1641 31.6992C72.9948 31.6992 71.3359 31.0065 70.1875 29.6211C69.0573 28.2357 68.4922 26.4583 68.4922 24.2891ZM72.0742 24.2891C72.0742 26.0755 72.3932 27.388 73.0312 28.2266C73.6693 29.0469 74.3802 29.457 75.1641 29.457C75.9661 29.457 76.6862 29.0469 77.3242 28.2266C77.9805 27.388 78.3086 26.0755 78.3086 24.2891C78.3086 22.4844 77.9805 21.1628 77.3242 20.3242C76.6862 19.4857 75.9661 19.0664 75.1641 19.0664C74.3802 19.0664 73.6693 19.4857 73.0312 20.3242C72.3932 21.1628 72.0742 22.4844 72.0742 24.2891ZM87.1953 31.5078H83.7773V14.0898C83.7773 13.5247 83.7318 13.151 83.6406 12.9688C83.5677 12.7682 83.4583 12.6406 83.3125 12.5859C83.0208 12.4766 82.7839 12.3672 82.6016 12.2578C82.4375 12.1302 82.3555 11.9023 82.3555 11.5742C82.3555 11.0091 82.7474 10.7266 83.5312 10.7266H86.0195C86.8034 10.7266 87.1953 11.0273 87.1953 11.6289V31.5078ZM93.4844 31.5078H90.0664V20.543C90.0664 19.9779 90.0208 19.5951 89.9297 19.3945C89.8385 19.194 89.7383 19.0664 89.6289 19.0117C89.3008 18.9206 89.0547 18.8112 88.8906 18.6836C88.7266 18.556 88.6445 18.3646 88.6445 18.1094C88.6445 17.4896 89.0365 17.1797 89.8203 17.1797H92.3086C93.0924 17.1797 93.4844 17.5078 93.4844 18.1641V31.5078ZM93.5938 12.9414C93.5938 13.5247 93.3841 14.026 92.9648 14.4453C92.5638 14.8464 92.0716 15.0469 91.4883 15.0469C90.9049 15.0469 90.4128 14.8464 90.0117 14.4453C89.6107 14.026 89.4102 13.5247 89.4102 12.9414C89.4102 12.3581 89.6107 11.8568 90.0117 11.4375C90.4128 11 90.9049 10.7812 91.4883 10.7812C92.0716 10.7812 92.5638 11 92.9648 11.4375C93.3841 11.8568 93.5938 12.3581 93.5938 12.9414ZM99.8008 25.082C98.4701 24.6263 97.3945 24.0521 96.5742 23.3594C95.7721 22.6484 95.3711 21.7917 95.3711 20.7891C95.3711 19.5677 95.8086 18.5924 96.6836 17.8633C97.5586 17.1159 98.8529 16.7148 100.566 16.6602C101.314 16.6237 102.052 16.6875 102.781 16.8516C103.529 16.9974 104.258 17.2435 104.969 17.5898V20.8984C103.911 19.987 103.055 19.431 102.398 19.2305C101.76 19.0117 101.186 18.9115 100.676 18.9297C100.074 18.9297 99.5911 19.0573 99.2266 19.3125C98.8802 19.5677 98.6888 19.9596 98.6523 20.4883C98.6341 20.944 98.8893 21.3633 99.418 21.7461C99.9648 22.1107 100.73 22.4844 101.715 22.8672C103.191 23.4141 104.249 24.0339 104.887 24.7266C105.543 25.4193 105.871 26.2305 105.871 27.1602C105.871 28.5638 105.361 29.6758 104.34 30.4961C103.337 31.2982 101.924 31.6992 100.102 31.6992C99.2083 31.6992 98.3698 31.5807 97.5859 31.3438C96.8203 31.0885 96.2461 30.7878 95.8633 30.4414C95.4622 30.0951 95.2526 29.7852 95.2344 29.5117C95.2161 29.2201 95.2708 28.974 95.3984 28.7734C95.6719 28.3906 96.0182 28.1901 96.4375 28.1719C96.8568 28.1354 97.2487 28.2812 97.6133 28.6094C97.9414 28.8464 98.3424 29.0469 98.8164 29.2109C99.2904 29.3568 99.7188 29.4297 100.102 29.4297C100.995 29.3932 101.642 29.1562 102.043 28.7188C102.462 28.2812 102.617 27.7435 102.508 27.1055C102.471 26.7956 102.271 26.4674 101.906 26.1211C101.542 25.7747 100.84 25.4284 99.8008 25.082ZM111.367 11.6289V17.1797H115.059V19.3945H111.395V27.8711C111.395 28.5273 111.504 28.9557 111.723 29.1562C111.96 29.3568 112.315 29.457 112.789 29.457C113.044 29.457 113.29 29.457 113.527 29.457C113.783 29.4388 114.375 29.3112 115.305 29.0742V31.3711C114.685 31.5716 114.083 31.6901 113.5 31.7266C112.935 31.763 112.497 31.7812 112.188 31.7812C111.258 31.7812 110.492 31.681 109.891 31.4805C109.289 31.2617 108.861 30.9518 108.605 30.5508C108.314 30.1862 108.141 29.7305 108.086 29.1836C108.049 28.6185 108.031 28.0352 108.031 27.4336V19.3945H106.062V17.1797H108.031V15.0742L111.367 11.6289Z" fill="#FF7659"/>
<ellipse cx="17" cy="16.5" rx="17" ry="16.5" fill="url(#paint0_linear)"/>
<path d="M13.3672 12.543C13.3672 11.9779 13.3216 11.6042 13.2305 11.4219C13.1393 11.2214 13.0299 11.0846 12.9023 11.0117C12.6107 10.9206 12.3828 10.8112 12.2188 10.6836C12.0547 10.556 11.9727 10.3555 11.9727 10.082C11.9727 9.48047 12.3555 9.17969 13.1211 9.17969H15.5547C16.2474 9.17969 16.6302 9.40755 16.7031 9.86328C17.487 9.17057 18.4987 8.82422 19.7383 8.82422C21.6706 8.82422 23.138 9.51693 24.1406 10.9023C25.1432 12.2695 25.6445 14.0833 25.6445 16.3438C25.6445 18.4401 25.1159 20.1901 24.0586 21.5938C23.0013 22.9974 21.4792 23.6992 19.4922 23.6992C18.362 23.6992 17.4414 23.4349 16.7305 22.9062V28.1836H13.3672V12.543ZM22.2266 16.4258C22.2266 14.7487 21.9349 13.4635 21.3516 12.5703C20.7865 11.6589 20.1029 11.2031 19.3008 11.2031C18.6263 11.2031 18.0339 11.5404 17.5234 12.2148C17.013 12.8711 16.7578 13.7734 16.7578 14.9219V17.5195C16.7578 18.9414 17.0039 19.9531 17.4961 20.5547C18.0065 21.1562 18.6172 21.457 19.3281 21.457C20.0208 21.457 20.6771 21.0286 21.2969 20.1719C21.9167 19.3151 22.2266 18.0664 22.2266 16.4258Z" fill="white"/>
<path fill-rule="evenodd" clip-rule="evenodd" d="M33.8039 17.0684C33.4435 17.0228 33.0661 17 32.6719 17C30.5026 17 28.8438 17.7018 27.6953 19.1055C26.5651 20.4909 26 22.2773 26 24.4648C26 26.4707 26.4832 28.1415 27.4495 29.4771C28.3509 28.7744 29.1766 27.9861 29.9131 27.1253C29.6924 26.4024 29.582 25.5156 29.582 24.4648C29.582 22.6602 29.901 21.3385 30.5391 20.5C31.1771 19.6615 31.888 19.2422 32.6719 19.2422C32.9834 19.2422 33.2826 19.3054 33.5694 19.4319C33.7048 18.6609 33.7843 17.8718 33.8039 17.0684Z" fill="white"/>
<defs>
<linearGradient id="paint0_linear" x1="6" y1="4" x2="25.5" y2="30" gradientUnits="userSpaceOnUse">
<stop stop-color="#FF7659"/>
<stop offset="1" stop-color="#FFAAAA"/>
</linearGradient>
</defs>
</svg>
