<svg width="31" height="33" viewBox="0 0 31 33" fill="none" xmlns="http://www.w3.org/2000/svg">
<path d="M26.8608 1.96223C23.4741 -0.988224 18.2417 -0.545049 15.0015 2.87286C11.7612 -0.545049 6.52881 -0.994295 3.14209 1.96223C-1.26415 5.8051 -0.619621 12.0703 2.521 15.391L12.7983 26.2397C13.3843 26.8589 14.1694 27.205 15.0015 27.205C15.8394 27.205 16.6186 26.865 17.2046 26.2458L27.4819 15.3971C30.6167 12.0763 31.2729 5.81117 26.8608 1.96223ZM25.478 13.3451L15.2007 24.1938C15.0601 24.3395 14.9429 24.3395 14.8022 24.1938L4.52491 13.3451C2.38624 11.0868 1.95264 6.81286 4.95264 4.19631C7.23193 2.21113 10.7476 2.50861 12.9507 4.83376L15.0015 7.00106L17.0522 4.83376C19.2671 2.49646 22.7827 2.21113 25.0503 4.19024C28.0444 6.80679 27.5991 11.105 25.478 13.3451Z" fill="#FFAAAA"/>
<path d="M11.874 21.871L9.96232 21.8709L9.96242 23.9771L16.2734 30.0239L19.8475 30.6654L22.5052 30.6655L24.7963 29.2914L26.1708 27.0928L26.5371 20.3134L25.4373 18.8475L23.971 19.672L22.5046 17.29L17.6474 17.931L16.914 12.709L14.5313 12.7089L14.5318 23.9773L11.874 21.871Z" fill="white"/>
<path d="M16.0728 11.5342C14.7984 11.5342 13.7487 12.527 13.7487 13.7323V22.3877L13.2405 21.8836L13.0468 21.7232C12.6159 21.3174 12.0326 21.0896 11.4246 21.0896C10.8166 21.0896 10.2333 21.3174 9.80239 21.7232C9.37341 22.1307 9.13257 22.6824 9.13257 23.2574C9.13257 23.8325 9.37341 24.3842 9.80239 24.7917V24.8144L16.1456 30.7449L16.1937 30.7677L16.2177 30.8138C17.3325 31.6131 18.6923 32.047 20.0912 32.0499H21.4236C22.2571 32.0515 23.0827 31.8975 23.853 31.5965C24.6234 31.2956 25.3233 30.8538 25.9126 30.2963C26.5019 29.7389 26.969 29.0769 27.2871 28.3483C27.6051 27.6196 27.7679 26.8388 27.7661 26.0505V20.3266C27.7661 19.1213 26.7156 18.1285 25.442 18.1285C25.112 18.1285 24.8067 18.2142 24.5217 18.3344C24.2676 17.3819 23.3511 16.6631 22.2704 16.6631C21.677 16.6631 21.1324 16.8829 20.721 17.2353C20.2975 16.8694 19.7452 16.6654 19.1716 16.6631C18.9069 16.6662 18.6447 16.7128 18.3969 16.8009V13.7323C18.3969 12.527 17.3472 11.5342 16.0728 11.5342ZM16.0728 12.9996C16.5028 12.9996 16.8475 13.3256 16.8475 13.7323V21.792H18.3969V18.8612C18.3969 18.4546 18.7416 18.1285 19.1716 18.1285C19.6016 18.1285 19.9463 18.4546 19.9463 18.8612V21.792H21.4957V18.8612C21.4957 18.4546 21.8404 18.1285 22.2704 18.1285C22.7003 18.1285 23.0451 18.4546 23.0451 18.8612V21.792H24.6673V20.3266C24.6673 19.92 25.012 19.5939 25.442 19.5939C25.8712 19.5939 26.2167 19.92 26.2167 20.3266V26.0512C26.2167 28.5893 24.1072 30.5845 21.4229 30.5845H20.0919C18.957 30.5845 17.9762 30.2013 17.162 29.6224L10.8916 23.7608C10.5469 23.4348 10.5469 23.0794 10.8916 22.7533C11.2371 22.4273 11.6121 22.4273 11.9568 22.7533L15.2981 25.9135V13.7323C15.2981 13.3256 15.6428 12.9996 16.0728 12.9996Z" fill="#CACACA"/>
</svg>
