<svg width="20" height="20" viewBox="0 0 20 20" fill="none" xmlns="http://www.w3.org/2000/svg">
<path d="M11.5443 8.45415C10.7252 7.63561 9.61446 7.17578 8.45631 7.17578C7.29816 7.17578 6.18741 7.63561 5.3683 8.45415L2.2793 11.5413C1.46018 12.3602 1 13.4709 1 14.629C1 15.7871 1.46018 16.8978 2.2793 17.7167C3.09842 18.5356 4.20939 18.9956 5.3678 18.9956C6.52622 18.9956 7.63719 18.5356 8.45631 17.7167L10.0003 16.1731" stroke="#757575" stroke-width="2" stroke-linecap="round" stroke-linejoin="round"/>
<path d="M8.4563 11.5415C9.27541 12.36 10.3861 12.8198 11.5443 12.8198C12.7025 12.8198 13.8132 12.36 14.6323 11.5415L17.7213 8.45429C18.5404 7.63539 19.0006 6.52472 19.0006 5.36662C19.0006 4.20852 18.5404 3.09785 17.7213 2.27895C16.9022 1.46005 15.7912 1 14.6328 1C13.4744 1 12.3634 1.46005 11.5443 2.27895L10.0003 3.82254" stroke="#757575" stroke-width="2" stroke-linecap="round" stroke-linejoin="round"/>
</svg>
