<svg width="25" height="25" viewBox="0 0 25 25" fill="none" xmlns="http://www.w3.org/2000/svg">
<g clip-path="url(#clip0)">
<path d="M24.7837 23.2933L17.3077 15.7692C18.7981 13.9904 19.5433 11.9391 19.5433 9.61538C19.5433 7.86859 19.1146 6.25801 18.2572 4.78365C17.3998 3.30929 16.23 2.14343 14.7476 1.28606C13.2652 0.428686 11.6546 0 9.91587 0C8.17708 0 6.57051 0.428686 5.09615 1.28606C3.62179 2.14343 2.45593 3.30929 1.59856 4.78365C0.741186 6.25801 0.3125 7.86859 0.3125 9.61538C0.3125 11.3622 0.741186 12.9728 1.59856 14.4471C2.45593 15.9215 3.62179 17.0873 5.09615 17.9447C6.57051 18.8021 8.18109 19.2308 9.92788 19.2308C12.3157 19.2308 14.4151 18.4455 16.226 16.875L23.6779 24.375C23.8381 24.5353 24.0224 24.6154 24.2308 24.6154C24.4391 24.6154 24.6194 24.5393 24.7716 24.387C24.9239 24.2348 25 24.0505 25 23.8341C25 23.6178 24.9279 23.4375 24.7837 23.2933ZM9.92788 17.7163C8.45353 17.7163 7.09535 17.3518 5.85337 16.6226C4.61138 15.8934 3.62981 14.9079 2.90865 13.6659C2.1875 12.4239 1.82692 11.0737 1.82692 9.61538C1.82692 8.15705 2.1875 6.80689 2.90865 5.5649C3.62981 4.32292 4.61138 3.33734 5.85337 2.60817C7.09535 1.87901 8.44952 1.51442 9.91587 1.51442C11.3822 1.51442 12.7364 1.87901 13.9784 2.60817C15.2204 3.33734 16.2019 4.32292 16.9231 5.5649C17.6442 6.80689 18.0048 8.15705 18.0048 9.61538C18.0048 10.2404 17.9327 10.8574 17.7885 11.4663C17.6442 12.0753 17.4399 12.6442 17.1755 13.1731C16.9111 13.7019 16.5946 14.2027 16.226 14.6755C15.8574 15.1482 15.4407 15.5689 14.976 15.9375C14.5112 16.3061 14.0144 16.6226 13.4856 16.887C12.9567 17.1514 12.3878 17.3558 11.7788 17.5C11.1699 17.6442 10.5529 17.7163 9.92788 17.7163Z" fill="black"/>
</g>
<defs>
<clipPath id="clip0">
<rect width="25" height="24.6154" fill="white"/>
</clipPath>
</defs>
</svg>
