<svg width="30" height="30" viewBox="0 0 30 30" fill="none" xmlns="http://www.w3.org/2000/svg">
<g clip-path="url(#clip0)">
<path d="M1.73801 28.2568L1.7431 28.2619C1.87828 28.3981 2.03904 28.5062 2.21614 28.58C2.39324 28.6538 2.58319 28.6919 2.77506 28.6921C2.93651 28.692 3.09684 28.6654 3.24967 28.6133L11.5703 25.7907L27.5371 9.82392C28.5132 8.84774 29.0616 7.5238 29.0615 6.14333C29.0614 4.76287 28.513 3.43897 27.5368 2.46288C26.5606 1.48678 25.2367 0.938454 23.8562 0.938515C22.4758 0.938575 21.1519 1.48702 20.1758 2.4632L4.20896 18.43L1.38662 26.7504C1.29772 27.0092 1.28353 27.2877 1.34568 27.5542C1.40782 27.8206 1.5438 28.0641 1.73801 28.2568ZM21.5017 3.789C22.127 3.16845 22.9727 2.82098 23.8537 2.82267C24.7347 2.82436 25.5791 3.17508 26.202 3.79803C26.8249 4.42097 27.1756 5.26538 27.1773 6.14635C27.179 7.02732 26.8315 7.87305 26.2109 8.49835L24.1113 10.598L19.4019 5.88865L21.5017 3.789ZM5.84432 19.4463L18.0761 7.21445L22.7855 11.9238L10.5536 24.1556L3.42662 26.5733L5.84432 19.4463Z" fill="#FF7D64"/>
<line x1="1.2002" y1="28.3" x2="31.2002" y2="28.3" stroke="#FF7D64"/>
</g>
<defs>
<clipPath id="clip0">
<rect width="30" height="30" fill="white"/>
</clipPath>
</defs>
</svg>
