<svg width="28" height="18" viewBox="0 0 28 18" fill="none" xmlns="http://www.w3.org/2000/svg">
<path d="M3.32438 17.1516L4.61067 16.6948L2.6328 11.1256C3.13413 10.072 3.53071 9.48551 4.32227 9.20439C5.34 8.84295 5.99404 9.29514 6.50608 10.7369L8.1727 15.4298L9.45899 14.9729L7.73213 10.1105C7.03435 8.14571 5.92785 7.36075 4.31646 7.93303C3.27046 8.3045 2.68472 9.16516 2.20571 10.1471L2.16331 10.1621L1.65867 9.09977L0.598538 9.47627L3.32438 17.1516ZM15.1264 13.1672C16.1724 12.7957 16.8667 12.1511 17.3896 11.472L16.6219 10.7895C16.1921 11.372 15.6646 11.814 14.9154 12.0801C13.4595 12.5971 12.0844 11.9075 11.4173 10.298L16.5907 8.4607C16.5537 8.2669 16.4866 7.9883 16.3862 7.70559C15.6081 5.51466 14.0036 4.49271 12.053 5.18546C10.272 5.81798 9.14208 7.97021 10.0256 10.458C10.9242 12.9882 13.0909 13.89 15.1264 13.1672ZM11.0718 9.37011C10.6952 7.81657 11.3452 6.59884 12.4336 6.2123C13.635 5.78561 14.638 6.36858 15.1852 7.9093L11.0718 9.37011ZM21.0769 10.8469L22.5894 10.3098L22.2028 5.81498C22.1397 5.00967 22.0391 4.23357 21.9327 3.3959L22.0033 3.3708C22.4632 4.08297 22.8555 4.73952 23.3095 5.39013L25.897 9.13513L27.4518 8.58293L26.7897 0.174677L25.5741 0.606394L26.0196 5.4464C26.111 6.24166 26.2156 6.98448 26.302 7.76561L26.2455 7.78569C25.8057 7.13006 25.3901 6.49768 24.9453 5.82792L22.1675 1.8162L20.9095 2.26298L21.2984 7.12307C21.3566 7.91423 21.4521 8.67621 21.5385 9.45733L21.4678 9.48243C21.0704 8.81175 20.669 8.17435 20.2524 7.49454L17.5312 3.46275L16.2167 3.92961L21.0769 10.8469Z" fill="#FF7659"/>
</svg>
