<svg width="30" height="33" viewBox="0 0 30 33" fill="none" xmlns="http://www.w3.org/2000/svg">
<path d="M29.46 26.055C28.4957 25.1953 27.6515 24.2098 26.95 23.125C26.1842 21.6275 25.7252 19.9922 25.6 18.315V13.375C25.6066 10.7406 24.651 8.19448 22.9127 6.21497C21.1745 4.23547 18.7732 2.95886 16.16 2.625V1.335C16.16 0.980936 16.0193 0.641374 15.769 0.391013C15.5186 0.140651 15.1791 0 14.825 0C14.4709 0 14.1314 0.140651 13.881 0.391013C13.6307 0.641374 13.49 0.980936 13.49 1.335V2.645C10.9003 3.00293 8.52797 4.28726 6.81253 6.26011C5.09709 8.23296 4.15473 10.7606 4.16 13.375V18.315C4.03475 19.9922 3.57578 21.6275 2.81 23.125C2.12088 24.2073 1.29019 25.1927 0.34 26.055C0.233332 26.1487 0.147841 26.2641 0.0892174 26.3934C0.0305935 26.5227 0.000179796 26.663 0 26.805V28.165C0 28.4302 0.105357 28.6846 0.292893 28.8721C0.48043 29.0596 0.734784 29.165 1 29.165H28.8C29.0652 29.165 29.3196 29.0596 29.5071 28.8721C29.6946 28.6846 29.8 28.4302 29.8 28.165V26.805C29.7998 26.663 29.7694 26.5227 29.7108 26.3934C29.6522 26.2641 29.5667 26.1487 29.46 26.055ZM2.08 27.165C3.01041 26.2662 3.8296 25.259 4.52 24.165C5.48461 22.3565 6.04743 20.361 6.17 18.315V13.375C6.13034 12.203 6.32692 11.0351 6.74804 9.94067C7.16917 8.84626 7.80621 7.84778 8.62125 7.0047C9.43628 6.16162 10.4126 5.49117 11.4922 5.03327C12.5717 4.57538 13.7324 4.33941 14.905 4.33941C16.0776 4.33941 17.2383 4.57538 18.3178 5.03327C19.3974 5.49117 20.3737 6.16162 21.1888 7.0047C22.0038 7.84778 22.6408 8.84626 23.062 9.94067C23.4831 11.0351 23.6797 12.203 23.64 13.375V18.315C23.7626 20.361 24.3254 22.3565 25.29 24.165C25.9804 25.259 26.7996 26.2662 27.73 27.165H2.08Z" fill="#696969"/>
<path d="M14.9505 32.505C15.5804 32.4905 16.185 32.2536 16.6571 31.8364C17.1293 31.4191 17.4386 30.8483 17.5305 30.225H12.2705C12.365 30.8653 12.6888 31.4495 13.1818 31.8689C13.6748 32.2883 14.3033 32.5143 14.9505 32.505Z" fill="#696969"/>
</svg>
