<svg width="32" height="34" viewBox="0 0 32 34" fill="none" xmlns="http://www.w3.org/2000/svg">
<path d="M14.95 33.28C15.58 33.2655 16.1845 33.0287 16.6566 32.6114C17.1288 32.1942 17.4381 31.6234 17.53 31H12.27C12.3645 31.6403 12.6883 32.2245 13.1813 32.6439C13.6743 33.0633 14.3028 33.2894 14.95 33.28Z" fill="#FF7659"/>
<path d="M29.46 26.83C28.4957 25.9703 27.6515 24.9848 26.95 23.9C26.1842 22.4025 25.7252 20.7672 25.6 19.09V14.15C25.5959 13.5499 25.5424 12.9513 25.44 12.36C24.6529 12.2027 23.8965 11.919 23.2 11.52C23.4655 12.3748 23.6003 13.2649 23.6 14.16V19.1C23.7226 21.146 24.2854 23.1415 25.25 24.95C25.9404 26.044 26.7596 27.0512 27.69 27.95H2.08C3.01041 27.0512 3.8296 26.044 4.52 24.95C5.48461 23.1415 6.04743 21.146 6.17 19.1V14.15C6.16474 12.9927 6.38781 11.8457 6.82644 10.7747C7.26508 9.70373 7.91066 8.72979 8.72622 7.90866C9.54178 7.08752 10.5113 6.43532 11.5793 5.98941C12.6472 5.54349 13.7927 5.31261 14.95 5.30999C16.6438 5.31135 18.2995 5.81225 19.71 6.74999C19.5545 6.17898 19.4672 5.59155 19.45 4.99999V4.36999C18.4059 3.85635 17.2841 3.51848 16.13 3.36999V2.10999C16.13 1.75593 15.9893 1.41637 15.739 1.16601C15.4886 0.915645 15.1491 0.774994 14.795 0.774994C14.4409 0.774994 14.1014 0.915645 13.851 1.16601C13.6007 1.41637 13.46 1.75593 13.46 2.10999V3.41999C10.8757 3.78455 8.51057 5.07174 6.80122 7.04393C5.09187 9.01612 4.15373 11.5401 4.16 14.15V19.09C4.03475 20.7672 3.57578 22.4025 2.81 23.9C2.12088 24.9823 1.29019 25.9677 0.34 26.83C0.233332 26.9237 0.147841 27.0391 0.0892174 27.1684C0.0305935 27.2977 0.000179796 27.438 0 27.58V28.94C0 29.2052 0.105357 29.4596 0.292893 29.6471C0.48043 29.8346 0.734784 29.94 1 29.94H28.8C29.0652 29.94 29.3196 29.8346 29.5071 29.6471C29.6946 29.4596 29.8 29.2052 29.8 28.94V27.58C29.7998 27.438 29.7694 27.2977 29.7108 27.1684C29.6522 27.0391 29.5667 26.9237 29.46 26.83Z" fill="#FF7659"/>
<path d="M26.9502 10C29.7116 10 31.9502 7.76142 31.9502 5C31.9502 2.23858 29.7116 0 26.9502 0C24.1888 0 21.9502 2.23858 21.9502 5C21.9502 7.76142 24.1888 10 26.9502 10Z" fill="#FF7659"/>
</svg>
