<svg width="32" height="34" viewBox="0 0 32 34"  xmlns="http://www.w3.org/2000/svg">
<path style="fill:#000000;" d="M14.9998 33.28C15.6298 33.2655 16.2343 33.0287 16.7064 32.6114C17.1786 32.1942 17.488 31.6234 17.5798 31H12.3198C12.4143 31.6403 12.7381 32.2245 13.2311 32.6439C13.7241 33.0633 14.3526 33.2894 14.9998 33.28Z" fill="#FF7659"/>
<path style="fill:#000000;" d="M29.5098 26.83C28.5455 25.9703 27.7013 24.9848 26.9998 23.9C26.234 22.4025 25.775 20.7672 25.6498 19.09V14.15C25.6457 13.5499 25.5922 12.9513 25.4898 12.36C24.7027 12.2027 23.9463 11.919 23.2498 11.52C23.5153 12.3748 23.6501 13.2649 23.6498 14.16V19.1C23.7724 21.146 24.3352 23.1415 25.2998 24.95C25.9902 26.044 26.8094 27.0512 27.7398 27.95H2.1298C3.06021 27.0512 3.8794 26.044 4.56981 24.95C5.53442 23.1415 6.09724 21.146 6.2198 19.1V14.15C6.21454 12.9927 6.43761 11.8457 6.87625 10.7747C7.31488 9.70373 7.96046 8.72979 8.77602 7.90866C9.59158 7.08752 10.5611 6.43532 11.6291 5.98941C12.697 5.54349 13.8425 5.31261 14.9998 5.30999C16.6936 5.31135 18.3493 5.81225 19.7598 6.74999C19.6043 6.17898 19.517 5.59155 19.4998 4.99999V4.36999C18.4557 3.85635 17.3339 3.51848 16.1798 3.36999V2.10999C16.1798 1.75593 16.0392 1.41637 15.7888 1.16601C15.5384 0.915645 15.1989 0.774994 14.8448 0.774994C14.4907 0.774994 14.1512 0.915645 13.9008 1.16601C13.6505 1.41637 13.5098 1.75593 13.5098 2.10999V3.41999C10.9255 3.78455 8.56038 5.07174 6.85103 7.04393C5.14167 9.01612 4.20353 11.5401 4.2098 14.15V19.09C4.08456 20.7672 3.62558 22.4025 2.8598 23.9C2.17069 24.9823 1.34 25.9677 0.389805 26.83C0.283136 26.9237 0.197646 27.0391 0.139022 27.1684C0.0803982 27.2977 0.0499845 27.438 0.0498047 27.58V28.94C0.0498047 29.2052 0.155161 29.4596 0.342698 29.6471C0.530234 29.8346 0.784588 29.94 1.0498 29.94H28.8498C29.115 29.94 29.3694 29.8346 29.5569 29.6471C29.7444 29.4596 29.8498 29.2052 29.8498 28.94V27.58C29.8496 27.438 29.8192 27.2977 29.7606 27.1684C29.702 27.0391 29.6165 26.9237 29.5098 26.83Z" fill="#FF7659"/>
<path  style="fill:#000000;"d="M27 10C29.7614 10 32 7.76142 32 5C32 2.23858 29.7614 0 27 0C24.2386 0 22 2.23858 22 5C22 7.76142 24.2386 10 27 10Z" fill="#FF7659"/>
</svg>
