<svg width="15" height="16" viewBox="0 0 15 16" fill="none" xmlns="http://www.w3.org/2000/svg">
<path d="M5.58689 0C4.56101 0 3.71599 0.774285 3.71599 1.71428V8.46457L3.30689 8.07142L3.15098 7.94628C2.8041 7.62986 2.33456 7.45221 1.84509 7.45221C1.35563 7.45221 0.886086 7.62986 0.539208 7.94628C0.193876 8.26412 0 8.69436 0 9.14285C0 9.59135 0.193876 10.0216 0.539208 10.3394V10.3571L5.64551 14.9823L5.68417 15L5.70351 15.036C6.60092 15.6593 7.69556 15.9977 8.82167 16H9.89431C10.5652 16.0013 11.2298 15.8811 11.85 15.6464C12.4701 15.4117 13.0335 15.0671 13.5079 14.6324C13.9823 14.1977 14.3583 13.6814 14.6144 13.1131C14.8704 12.5449 15.0015 11.9359 15 11.3211V6.85714C15 5.91714 14.1543 5.14285 13.1291 5.14285C12.8634 5.14285 12.6177 5.20971 12.3882 5.30343C12.1837 4.56057 11.4459 4 10.5759 4C10.0982 4 9.65983 4.17143 9.32868 4.44628C8.98776 4.16087 8.5432 4.00181 8.08142 4C7.86832 4.00244 7.6573 4.03879 7.45778 4.10743V1.71428C7.45778 0.774285 6.61276 0 5.58689 0ZM5.58689 1.14286C5.933 1.14286 6.21052 1.39714 6.21052 1.71428V8H7.45778V5.71428C7.45778 5.39714 7.7353 5.14285 8.08142 5.14285C8.42753 5.14285 8.70505 5.39714 8.70505 5.71428V8H9.95231V5.71428C9.95231 5.39714 10.2298 5.14285 10.5759 5.14285C10.9221 5.14285 11.1996 5.39714 11.1996 5.71428V8H12.5055V6.85714C12.5055 6.54 12.783 6.28571 13.1291 6.28571C13.4746 6.28571 13.7527 6.54 13.7527 6.85714V11.3217C13.7527 13.3011 12.0546 14.8571 9.89369 14.8571H8.82229C7.90867 14.8571 7.11915 14.5583 6.46371 14.1068L1.41603 9.53542C1.13852 9.28114 1.13852 9.00399 1.41603 8.74971C1.69417 8.49542 1.99601 8.49542 2.27353 8.74971L4.96325 11.2143V1.71428C4.96325 1.39714 5.24077 1.14286 5.58689 1.14286Z" fill="#FF7659"/>
</svg>
