<svg width="30" height="32" viewBox="0 0 30 32" fill="none" xmlns="http://www.w3.org/2000/svg">
<path d="M26.8594 1.96187C23.4726 -0.988043 18.2402 -0.54495 15 2.87233C11.7598 -0.54495 6.52735 -0.994113 3.14063 1.96187C-1.26562 5.80404 -0.621086 12.068 2.51954 15.3882L12.7969 26.2349C13.3828 26.854 14.168 27.2 15 27.2C15.8379 27.2 16.6172 26.8601 17.2031 26.241L27.4805 15.3943C30.6152 12.0741 31.2715 5.81011 26.8594 1.96187ZM25.4765 13.3427L15.1992 24.1894C15.0586 24.3351 14.9414 24.3351 14.8008 24.1894L4.52344 13.3427C2.38477 11.0847 1.95118 6.81162 4.95117 4.19555C7.23047 2.21073 10.7461 2.50815 12.9492 4.83287L15 6.99978L17.0508 4.83287C19.2656 2.49601 22.7812 2.21073 25.0488 4.18948C28.043 6.80555 27.5976 11.103 25.4765 13.3427Z" fill="#FF7659"/>
<path d="M10.9365 21.3368L9.02482 21.3367L9.02492 23.4429L15.3359 29.4897L18.91 30.1312L21.5677 30.1313L23.8588 28.7572L25.2333 26.5586L25.5996 19.7792L24.4998 18.3134L23.0335 19.1378L21.5671 16.7558L16.7099 17.3968L15.9765 12.1748L13.5938 12.1747L13.5943 23.4432L10.9365 21.3368Z" fill="white"/>
<path d="M15.1353 11C13.8609 11 12.8112 11.9928 12.8112 13.1981V21.8535L12.303 21.3494L12.1093 21.189C11.6784 20.7832 11.0951 20.5555 10.4871 20.5555C9.87908 20.5555 9.2958 20.7832 8.86489 21.189C8.43591 21.5965 8.19507 22.1482 8.19507 22.7233C8.19507 23.2983 8.43591 23.85 8.86489 24.2575V24.2803L15.2081 30.2108L15.2562 30.2335L15.2802 30.2796C16.395 31.0789 17.7548 31.5128 19.1537 31.5157H20.4861C21.3196 31.5173 22.1452 31.3633 22.9155 31.0624C23.6859 30.7614 24.3858 30.3196 24.9751 29.7621C25.5644 29.2047 26.0315 28.5427 26.3496 27.8141C26.6676 27.0855 26.8304 26.3046 26.8286 25.5163V19.7924C26.8286 18.5871 25.7781 17.5943 24.5045 17.5943C24.1745 17.5943 23.8692 17.6801 23.5842 17.8002C23.3301 16.8477 22.4136 16.1289 21.3329 16.1289C20.7395 16.1289 20.1949 16.3487 19.7835 16.7012C19.36 16.3352 18.8077 16.1312 18.2341 16.1289C17.9694 16.1321 17.7072 16.1787 17.4594 16.2667V13.1981C17.4594 11.9928 16.4097 11 15.1353 11ZM15.1353 12.4654C15.5653 12.4654 15.91 12.7915 15.91 13.1981V21.2579H17.4594V18.327C17.4594 17.9204 17.8041 17.5943 18.2341 17.5943C18.6641 17.5943 19.0088 17.9204 19.0088 18.327V21.2579H20.5582V18.327C20.5582 17.9204 20.9029 17.5943 21.3329 17.5943C21.7628 17.5943 22.1076 17.9204 22.1076 18.327V21.2579H23.7298V19.7924C23.7298 19.3858 24.0745 19.0597 24.5045 19.0597C24.9337 19.0597 25.2792 19.3858 25.2792 19.7924V25.5171C25.2792 28.0551 23.1697 30.0503 20.4854 30.0503H19.1544C18.0195 30.0503 17.0387 29.6671 16.2245 29.0883L9.95412 23.2266C9.60938 22.9006 9.60938 22.5452 9.95412 22.2192C10.2996 21.8931 10.6746 21.8931 11.0193 22.2192L14.3606 25.3793V13.1981C14.3606 12.7915 14.7053 12.4654 15.1353 12.4654Z" fill="#FFAAAA"/>
</svg>
