<svg width="25" height="25" viewBox="0 0 25 25" fill="none" xmlns="http://www.w3.org/2000/svg">
<circle cx="12.5" cy="12.5" r="11.5" fill="white" stroke="#FF7878" stroke-width="2"/>
<path d="M12.5 21.5C13.3284 21.5 14 20.8284 14 20C14 19.1716 13.3284 18.5 12.5 18.5C11.6716 18.5 11 19.1716 11 20C11 20.8284 11.6716 21.5 12.5 21.5Z" fill="#FF7878"/>
<path d="M14 15C14 15.3978 13.842 15.7794 13.5607 16.0607C13.2794 16.342 12.8978 16.5 12.5 16.5C12.1022 16.5 11.7206 16.342 11.4393 16.0607C11.158 15.7794 11 15.3978 11 15V5.5C11 5.10218 11.158 4.72064 11.4393 4.43934C11.7206 4.15804 12.1022 4 12.5 4C12.8978 4 13.2794 4.15804 13.5607 4.43934C13.842 4.72064 14 5.10218 14 5.5V15Z" fill="#FF7878"/>
</svg>
